<?xml version="1.0" encoding="utf-8"?>
<svg version="1.2" baseProfile="tiny-ps" xmlns="http://www.w3.org/2000/svg" width="128px" height="128px" viewBox="0 0 520 380" preserveAspectRatio="xMidYMid meet">
 <g fill="#e3e3e3">
  <path d="M133.3 111.9 c-0.6 -0.6 -2.6 -1.4 -4.5 -1.8 -2.6 -0.5 -3.8 -1.6 -6 -5.6 -3.3 -6 -5.8 -16.4 -5.8 -23.9 0 -6.4 2.5 -12.6 5.1 -12.6 1 0 2 -0.4 2.3 -0.9 1.5 -2.3 10.4 -6.4 18.8 -8.5 9.2 -2.4 9.6 -2.4 35.8 -1.6 14.6 0.5 29 1.4 32 2 3 0.5 8.9 2.7 13 4.8 8.5 4.3 9.1 5.6 6.7 13.9 -1.1 4.1 -2 5.1 -5.6 7 -2.7 1.4 -7 2.4 -11.9 2.8 -10.6 0.8 -14.3 2 -17.7 5.5 -1.7 1.8 -3.9 3 -5.4 3 -1.4 0 -4.2 1 -6.1 2.1 -2.2 1.4 -5.9 2.4 -9.8 2.7 -5.6 0.4 -6.5 0.2 -8.7 -1.8 -2 -1.8 -2.8 -2.1 -3.7 -1.2 -0.7 0.7 -2.2 1.2 -3.5 1.2 -1.6 0 -2.8 1.1 -4.2 3.8 -2.6 5 -4.2 6.3 -9.1 6.9 -2.4 0.4 -4 1.1 -4 1.9 0 1.7 -6.1 1.9 -7.7 0.3z"/>
 </g>
 <g fill="#d7d7d7">
  <path d="M250 185.4 c-13.1 -10.7 -27.4 -18.5 -60.3 -33 -30.8 -13.6 -47.5 -23.8 -58.2 -35.6 -4.8 -5.3 -5.5 -6.7 -5.5 -10.2 0 -4 0 -4 1.6 -1.7 1.1 1.5 2 1.9 2.7 1.2 0.7 -0.7 2 -0.2 4.3 1.6 1.9 1.4 3.4 2.1 3.4 1.5 0 -2 -3.7 -5.5 -6.1 -5.8 -1.3 -0.1 -2.6 -0.3 -2.9 -0.3 -0.6 -0.2 2.3 -2.1 3.1 -2.1 0.3 0 2.4 1.4 4.5 3.1 3 2.4 4.5 2.9 6.8 2.5 3.8 -0.8 5.3 -2.1 7.7 -6.8 1.4 -2.7 2.6 -3.8 4.2 -3.8 1.2 0 3.3 -0.9 4.7 -2 3.3 -2.5 3.3 -2.5 7.5 1.1 3 2.7 4 3 7.1 2.5 1.9 -0.4 5 -1.6 6.7 -2.7 1.8 -1 4.4 -1.9 5.8 -1.9 1.5 0 3.7 -1.2 5.4 -3 3.4 -3.5 7.1 -4.7 17.7 -5.5 10.7 -0.9 15.7 -3.6 17.4 -9.3 1 -3.7 1 -4.3 -0.5 -5.2 -3.1 -1.8 7.2 -1 11.4 0.9 10.4 4.8 26.4 24.2 35.7 43.1 6.3 12.8 12.5 22.6 17.2 26.9 1.9 1.8 2.6 3.4 2.6 6.2 0 2 -0.3 3.9 -0.7 4.1 -2.3 1 -14.3 16.9 -14.3 18.9 0 1.6 -2.9 5.3 -8.6 11.2 -10.4 10.7 -12 11 -20.4 4.1z"/>
  <path d="M121 70.6 c0 -3.5 0.6 -4.6 5 -8.7 8.1 -7.9 19.6 -12.9 36 -15.5 13.1 -2.1 41.7 -2.1 53.5 0 12.7 2.3 12.5 2.2 12.5 6 0 3.1 -0.4 3.5 -7.7 6.9 -7.1 3.2 -8.2 3.5 -12.3 2.7 -2.5 -0.5 -14.4 -1.2 -26.5 -1.5 -12.1 -0.3 -22.7 -0.8 -23.6 -1.1 -0.9 -0.2 -6 0.7 -11.3 2.1 -9.3 2.4 -17.1 6 -19.6 9 -0.7 0.8 -1.7 1.2 -2.2 0.9 -0.5 -0.3 -1.6 0.2 -2.3 1.2 -1.3 1.7 -1.4 1.6 -1.5 -2z"/>
  <path d="M214.9 36.5 c-6.9 -1.4 -14.3 -3 -16.5 -3.7 -3.8 -1.3 -3.9 -1.4 -4.2 -6.4 -0.3 -4.8 -0.1 -5.3 3.5 -8.4 8.3 -7.4 22.7 -12 37.1 -12 l9.4 0 -0.7 7.8 c-0.3 4.2 -1.1 9.7 -1.7 12.1 -1 3.8 -0.9 4.6 0.5 5.6 1 0.7 1.7 2.6 1.7 4.4 l0 3.1 -8.2 -0.1 c-4.6 0 -14 -1.1 -20.9 -2.4z"/>
 </g>
 <g fill="#c4c5c4">
  <path d="M286.3 236.3 c-5.5 -15.4 -15.3 -31 -25.7 -41.3 -3.4 -3.2 -4.6 -5.2 -4.6 -7.3 0 -2.4 0.2 -2.7 1.4 -1.8 1.2 1 3 -0.4 9.8 -7.5 5.2 -5.4 8.3 -9.5 8.4 -10.9 0.1 -2 11.8 -17.6 14.8 -19.7 0.6 -0.4 0.5 -1.3 -0.3 -2.2 -1.2 -1.4 -1 -1.6 1.6 -1.6 2 0 3.9 1.1 6.4 3.6 8.6 9.1 24.8 20.1 33.6 22.8 3 0.9 6.3 -2.5 6.3 -6.4 0 -2.8 0.3 -3 3.5 -3 4.1 0 4.3 0.3 8 14.5 4 15 6.9 42.1 4.7 45 -0.4 0.6 -4.4 3.2 -8.9 5.8 -8.8 5 -12.8 5.8 -16.9 3.1 -2.2 -1.5 -3.2 -1.5 -10.1 -0.3 -4.3 0.8 -8.7 2.2 -10.2 3.4 -2.6 2.1 -13.6 5.3 -18.4 5.4 -1.8 0.1 -3 -0.5 -3.4 -1.6z"/>
  <path d="M242 78 c-1.9 -1.6 -5.5 -3.7 -8 -4.7 -2.5 -1 -7.3 -3.4 -10.8 -5.4 -3.4 -2 -8.3 -4.2 -10.7 -4.9 -2.5 -0.7 -4.5 -1.5 -4.5 -1.9 0 -0.3 3.9 -2.4 8.7 -4.6 8.5 -3.9 8.6 -3.9 5.9 -5.1 -2.3 -0.9 -2.5 -1.2 -1.1 -1.7 7.2 -2.8 25.5 4.3 37.4 14.5 2.4 2.1 3.1 3.5 3.1 6.2 0 3.1 -0.3 3.6 -2.4 3.6 -1.3 0 -4.7 1.6 -7.5 3.5 -2.8 1.9 -5.4 3.5 -5.8 3.5 -0.5 0 -2.4 -1.4 -4.3 -3z"/>
  <path d="M236.6 38 c-1.9 -2 -1.9 -2 1.2 -2 l3.2 0 -2 -2 c-1.3 -1.3 -1.9 -2.9 -1.6 -4.3 1.8 -8.7 2.5 -12.7 2.9 -16.4 0.4 -3.7 0.2 -4.3 -1.4 -4.3 -1.3 0 -1.7 -0.5 -1.2 -1.6 0.5 -1.4 1.7 -1.6 7.7 -1.1 9.4 0.7 15.9 3.3 21.8 8.5 4.7 4.3 4.8 4.5 4.8 10.4 0 3.2 -0.5 6.8 -1.1 8 -2.1 3.8 -9.4 6 -21.4 6.5 -10 0.3 -11.2 0.2 -12.9 -1.7z"/>
 </g>
 <g fill="#91ccdb">
  <path d="M136.2 308.9 c1.6 -0.9 1 -1.7 -4.5 -6.4 -15.2 -12.8 -29.2 -30.4 -41.6 -52 -6.1 -10.7 -15.6 -38.5 -17.1 -50 -1.7 -13.7 -2.3 -33.8 -1.2 -44.5 0.6 -5.8 3.1 -18.4 5.5 -28 3.6 -14.1 5.5 -19.7 9.9 -28.5 7.1 -14 17.9 -30.3 25.1 -38 l5.6 -6 0.1 4.1 c0 2.6 -0.6 4.6 -1.6 5.5 -2.2 1.8 -10.7 16.4 -14.3 24.6 -3.1 7.1 -5.5 15.5 -8.6 30 -1.4 6.1 -1.6 10.4 -1.2 17 2.3 31.5 18.9 56.7 49.7 75.4 11.4 6.9 12 7.5 12 10.6 0 3.2 0 3.2 -5.7 3.5 l-5.6 0.3 5.2 6 c6.2 7.2 12.5 19.3 14.1 27.2 0.7 3.3 1 9.3 0.7 14.1 -0.6 10.9 -5 20.2 -13.7 29.5 -5.8 6.2 -6.5 6.7 -10.4 6.7 -3.3 -0.1 -3.7 -0.3 -2.4 -1.1z"/>
 </g>
 <g fill="#b5b6b6">
  <path d="M251 313.7 c0 -2.9 0.4 -3.5 3.8 -4.6 5.9 -2.1 14.9 -7.9 21.1 -13.7 4.2 -3.8 6.9 -7.6 9.6 -13.1 3.6 -7.3 3.9 -8.5 4.3 -18.8 0.3 -7.9 -0.1 -12.9 -1.2 -17.8 -1.8 -7.6 -2.1 -13.3 -0.7 -14.1 0.5 -0.3 1.1 0.3 1.4 1.3 0.4 1.7 0.7 1.7 7 0.1 3.7 -0.9 7.5 -2.4 8.6 -3.4 1.8 -1.7 11.6 -4.3 19.1 -5.1 2.2 -0.3 4.7 0.3 6.8 1.5 l3.2 2 8.5 -4.8 c5.7 -3.1 8.7 -5.4 9.1 -6.9 0.3 -1.3 1.3 -2.3 2.2 -2.3 1.3 0 1.4 1.6 0.9 11.8 -0.8 14.7 -2.6 22 -8.8 34.8 -11.2 23.5 -30.3 41.5 -53.3 50.5 -10.6 4.1 -20.2 5.9 -31.7 5.9 l-9.9 0 0 -3.3z"/>
  <path d="M267.2 108.8 c-3.5 -6 -14.5 -20.3 -20.2 -26.3 l-3.9 -4 5.6 -3.8 c3.1 -2 6.7 -3.7 8 -3.7 2.7 0 2.9 -0.8 0.6 -2.6 -1.6 -1.2 -1.4 -1.3 1.7 -1.4 3.6 0 5.7 1.9 11.8 10.7 3.8 5.4 11.2 23.5 11.2 27.3 -0.1 3.2 -0.5 3.7 -5.2 6 -2.7 1.4 -5.4 2.6 -5.8 2.8 -0.4 0.2 -2.2 -2.1 -3.8 -5z"/>
 </g>
 <g fill="#60b8cb">
  <path d="M220.3 302.1 c-11.2 -8.8 -17.3 -18.8 -19.6 -32.2 -0.8 -4.7 -2.7 -11.1 -4.2 -14.3 -3.8 -8.1 -12.5 -16.5 -21.6 -21 -7.1 -3.4 -20.9 -7.6 -25.3 -7.6 -1.2 0 -2.7 -0.9 -3.3 -1.9 -1.1 -1.8 -0.9 -2 1.8 -2.3 2.8 -0.3 2 -1 -9 -7.6 -25.1 -15.2 -41 -34.9 -47.1 -58.7 -3.1 -11.7 -3.8 -29.5 -1.5 -39.8 3.1 -14.4 5.5 -22.9 8.6 -30 3.6 -8.2 12.1 -22.8 14.3 -24.6 1.4 -1.2 1.6 -0.8 1.6 3.4 0 3.4 -1.1 6.9 -4 13 -2.2 4.6 -4 9 -4 9.8 0 0.9 -0.4 1.8 -0.9 2.1 -0.4 0.3 -1.1 2.8 -1.5 5.5 -0.4 2.8 -1.1 5.3 -1.6 5.6 -1.9 1.2 -0.9 4.1 3.6 10.5 6.3 9.1 8.4 13.4 8.4 17.4 0 6.1 12.6 20.8 23.2 27 2.5 1.5 6.7 5.1 9.2 8.1 7.3 8.5 16.7 14.8 32.6 22 8 3.6 18.9 8.8 24.3 11.5 5.3 2.8 10.8 5 12.1 5 1.7 0 4.8 2.3 9.8 7.1 4 3.9 8.9 8.1 10.8 9.3 3.7 2.5 10 8.5 10 9.7 0 0.3 3.1 4.4 6.8 9.1 9.3 11.5 11.7 17.2 11.6 27 -0.1 6.2 -0.6 8.8 -2.9 13.3 -3.2 6.7 -14.3 18.1 -22.9 23.7 -8.2 5.3 -12.6 5.2 -19.3 -0.1z"/>
 </g>
 <g fill="#9d9d9d">
  <path d="M287.8 143.3 c-6.2 -6.8 -10.1 -12.7 -14.7 -22.8 -2.3 -4.8 -4.1 -9.1 -4.1 -9.5 0 -0.4 2.3 -1.8 5 -3.1 3.7 -1.8 4.9 -2.9 4.6 -4.1 -0.3 -1.3 0.2 -1.8 1.7 -1.7 1.6 0 3.5 2.1 6.9 7.2 2.6 4 8.3 11.3 12.7 16.4 6.8 7.8 8.1 9.8 8.1 12.8 0 3.2 -0.4 3.7 -6 6.5 -3.3 1.6 -6.8 3 -7.8 3 -1.1 0 -3.9 -2.1 -6.4 -4.7z"/>
 </g>
 <g fill="#4daec0">
  <path d="M111.6 128.6 c-0.3 -1.4 -3.5 -6.8 -7.1 -12.1 -6.8 -10.1 -7.5 -12.2 -4.9 -17 0.8 -1.6 1.6 -4.3 1.6 -6 0 -1.6 0.7 -4 1.4 -5.2 0.8 -1.2 1.4 -2.7 1.4 -3.4 0 -0.6 1.8 -4.8 4 -9.4 2.2 -4.6 4 -9.2 4 -10.3 0 -1.1 0.7 -2.5 1.5 -3.2 0.8 -0.7 1.5 -1.8 1.5 -2.5 0 -0.7 2.7 -4.1 6 -7.6 l5.9 -6.4 0.1 3.6 c0 2 -0.9 5.6 -2 8 -1.1 2.4 -2 5.3 -2 6.4 0 1.1 -0.9 3.6 -1.9 5.6 -3.5 6.4 -5.4 21.7 -5.3 40.9 0.1 9.6 -0.1 18.3 -0.4 19.3 -0.8 2.5 -3.1 2.1 -3.8 -0.7z"/>
 </g>
 <g fill="#898a89">
  <path d="M318.3 168.6 c-10.6 -5.7 -31.1 -23.6 -27 -23.6 2.2 0 13.7 -5.7 13.7 -6.8 0 -0.4 -0.5 -1.3 -1.2 -2 -0.9 -0.9 -0.5 -1.2 1.8 -1.2 2.2 0 5.2 2 12.3 8 7 5.9 10.2 8 12.3 8 2.6 0 2.8 0.3 2.8 4.2 0 3 -0.8 5.1 -2.7 7.6 -1.6 2 -3.5 4.8 -4.3 6.3 l-1.5 2.8 -6.2 -3.3z"/>
 </g>
 <g fill="#3ea7b6">
  <path d="M241.8 314.6 c-9.8 -4 -14.8 -7.4 -14.8 -10 0 -1.8 0.4 -2.3 1.8 -2 4.8 1.3 25.9 -17.3 30.6 -26.8 5.4 -11.1 3.2 -19.9 -8.6 -34.6 -3.7 -4.7 -6.8 -8.8 -6.8 -9.1 0 -1.1 -6.2 -7.2 -9.2 -9 -1.4 -0.9 -6.2 -5 -10.5 -9.1 -4.3 -4.1 -8.4 -7.3 -9.2 -7.1 -0.8 0.1 -6.8 -2.4 -13.5 -5.7 -6.6 -3.3 -18.2 -8.7 -25.6 -12.1 -14.9 -6.8 -24.5 -13.4 -31.6 -21.6 -2.5 -3 -6.7 -6.6 -9.2 -8.1 -6.1 -3.6 -13.5 -10.5 -18.7 -17.6 l-4.2 -5.6 0.2 -23.9 c0.2 -17 0.7 -26.4 1.9 -32.8 1.8 -9.7 4.4 -16.5 6.4 -16.5 1.6 0 1.6 9.2 0 13.6 -2.9 8.1 3.7 26.1 13.7 37.1 10.8 11.9 27.4 22.1 58.5 35.8 38.3 16.8 53.5 26 69.1 41.4 14.9 14.9 23.9 30.1 28.5 47.9 2.3 8.7 2.5 11.2 2.2 24.2 -0.4 14.1 -0.5 14.7 -3.8 21.5 -1.9 3.8 -5.4 9.1 -7.9 11.8 -5.2 5.6 -15.6 12.7 -22.6 15.6 l-5 2 4.5 0.1 4.5 0.2 -3 1.3 c-4.5 2.1 -11.3 1.7 -17.7 -0.9z"/>
 </g>
 <g fill="#818181">
  <path d="M325.2 172 l-4.3 -1.9 1.7 -3.3 c0.9 -1.8 3 -4.9 4.5 -6.8 3.4 -4.1 3.7 -6 0.9 -5.3 -1.6 0.4 -1.9 0.2 -1.3 -1.3 0.3 -1.1 1.2 -2.8 2 -3.9 0.8 -1.2 1.3 -5 1.3 -10.6 0 -10.3 0.6 -11.1 8.2 -10.7 l5.3 0.3 5.7 11 c6.6 12.6 9.8 21.3 9.8 26.5 0 3.2 -0.4 3.7 -4.9 5.8 -7.3 3.3 -8.6 3 -10.1 -2.3 -1.5 -5.5 -3 -6.7 -3 -2.6 0 6.7 -7.1 9 -15.8 5.1z"/>
 </g>
 <g fill="#6d6d6d">
  <path d="M348.6 243.8 c4.7 -14.7 4 -41.9 -1.6 -64 -1.1 -4.2 -2 -7.8 -2 -8 0 -0.2 2.5 -1.5 5.5 -2.8 3 -1.3 5.5 -3 5.5 -3.7 0 -0.7 0.9 -1.3 1.9 -1.3 2.2 0 4 5.1 7.3 21 4 19.1 1.9 57.1 -3.1 58.7 -0.9 0.2 -2.4 0.9 -3.3 1.4 -1 0.5 -3.8 0.9 -6.4 0.9 -4.3 0 -4.5 -0.1 -3.8 -2.2z"/>
 </g>
 <g fill="#565756">
  <path d="M272 314.6 c0 -0.8 2.5 -1.9 6.4 -2.9 28.5 -7 53.8 -28.9 65.9 -57 1.9 -4.5 3.8 -9 4.1 -9.9 0.3 -1.2 1.5 -1.8 3.4 -1.8 1.5 0 3.8 -0.9 5 -2 1.2 -1.2 2.2 -1.6 2.2 -1 0 0.6 0.5 0.8 1 0.5 0.6 -0.3 1 -1.6 1 -2.8 0.1 -2.1 0.1 -2.1 1.1 -0.3 2 3.3 0.4 10.8 -4.5 21.1 -7.5 15.9 -17 27.3 -32.2 38.5 -5 3.8 -10.4 7.5 -12 8.3 -6 3 -21.1 8.6 -26.2 9.6 -7.6 1.6 -15.2 1.4 -15.2 -0.3z"/>
 </g>
 <g fill="#4e4f53">
  <path d="M184 17.1 c-0.6 -3.9 -1 -7.7 -0.7 -8.4 0.6 -1.7 17.6 -7.2 29.4 -9.6 13.9 -2.9 34.2 -4.5 46.8 -3.7 15 0.9 16.5 1.3 16.5 4.2 0 1.4 -0.7 2.7 -1.5 3 -0.8 0.3 -1.7 1.6 -2.1 2.7 -0.4 1.2 -1.7 4.4 -3 7.1 -1.3 2.8 -2.4 5.6 -2.4 6.4 0 0.8 -1.5 0.1 -3.9 -2 -5.8 -4.9 -12.1 -7 -23.6 -7.5 -14.1 -0.7 -27.8 3.1 -37.4 10.5 -3.8 2.8 -3.8 2.8 -11.7 3.8 l-5.2 0.6 -1.2 -7.1z"/>
 </g>
 <g fill="#414246">
  <!--<path d="M55.3 504 c-6.1 -1.3 -14.4 -5.5 -19.6 -10 -9.7 -8.6 -14.3 -20 -13.4 -33.4 0.7 -11.4 3.6 -18.3 10.7 -26 9.6 -10.2 19.8 -14.1 35.3 -13.4 7.8 0.3 10.2 0.9 15.9 3.6 8.9 4.3 16 11.4 20.1 19.9 3 6.4 3.2 7.5 3.2 17.8 0 10.8 -0.1 11.3 -3.8 18.7 -8.7 17.6 -28.1 26.8 -48.4 22.8z m22.3 -19.6 c7 -4.3 10.7 -10.8 11.2 -19.3 0.5 -8.9 -1 -13.9 -5.8 -19.3 -4.9 -5.6 -10.5 -8 -18.7 -8 -14.1 -0.1 -23.5 9.9 -23.5 24.9 -0.1 15.1 10.9 25.7 25.8 25 4.8 -0.2 7.3 -0.9 11 -3.3z"/>-->
  <!--<path d="M308.1 503.9 c-7.2 -1.4 -16.7 -6.4 -21.5 -11.4 -2.5 -2.5 -6 -7.6 -7.8 -11.3 -3.2 -6.4 -3.3 -7.2 -3.3 -18.2 0 -10.9 0.2 -11.9 3.2 -18.2 8.3 -17.6 24.6 -26.1 45.3 -23.6 8 0.9 17.2 4.8 22.4 9.4 l2.8 2.5 -2.3 2.7 c-1.3 1.5 -3.9 4.4 -5.8 6.4 l-3.5 3.8 -3.4 -2.7 c-4.7 -3.5 -12.3 -6.3 -17.5 -6.3 -8.4 0 -17.9 6.6 -21.3 14.6 -2.4 5.7 -2.7 12.7 -1 18.8 5.2 17.8 24.7 23.2 40.6 11.2 l3.4 -2.6 5.9 5.7 5.8 5.8 -3.8 3.3 c-9.9 8.7 -25 12.7 -38.2 10.1z"/>-->
  <!--<path d="M159.4 503.1 c-0.2 -0.2 -0.4 -18.6 -0.4 -40.8 l0 -40.5 24.3 0.4 c22 0.3 24.6 0.6 28.7 2.5 10.6 4.9 15.8 14.6 14.7 27 -0.9 9.6 -5 16 -13.4 21 l-3.3 2 8.6 12.4 c4.7 6.8 9 13.2 9.5 14.2 0.9 1.6 0.2 1.7 -9.4 1.7 l-10.3 0 -8.9 -13 c-6 -8.9 -9.3 -12.9 -10.3 -12.5 -0.7 0.3 -3.8 0.5 -6.8 0.5 l-5.4 0 0 12.4 0 12.5 -8.6 0.3 c-4.7 0.2 -8.8 0.1 -9 -0.1z m36.5 -41.7 c5.6 -0.6 7.1 -1.2 9.8 -3.9 2.6 -2.6 3.3 -4.1 3.3 -7.1 -0.1 -9.6 -4.7 -12.4 -20.7 -12.4 l-11.3 0 0 11.3 c0 6.3 0.2 11.6 0.5 11.9 0.8 0.8 11.6 1 18.4 0.2z"/>-->
  <!--<path d="M400.4 503 l-8.1 -0.5 17.3 -40.5 17.3 -40.5 8.3 0 8.3 0 7.6 18 c4.2 9.9 11.8 27.7 16.9 39.5 5 11.8 9.4 22.1 9.7 22.8 0.4 0.9 -1.8 1.2 -8.9 1.2 l-9.4 0 -3.8 -9 -3.8 -9 -17.2 0.2 -17.1 0.3 -3.5 8.7 c-1.9 4.8 -3.9 8.9 -4.5 9 -0.5 0.2 -4.6 0.1 -9.1 -0.2z m44.2 -35.7 c-3.6 -9.7 -9.2 -23.3 -9.7 -23.3 -0.3 0 -2.9 5.6 -5.7 12.5 l-5.1 12.5 10.6 0 c9.6 0 10.5 -0.2 9.9 -1.7z"/>-->
  <path d="M343.2 76 c-5.8 -6.3 -10.2 -11.9 -10.2 -13 0 -3.7 -9.6 -12 -13.9 -12 -0.6 0 -3.1 -2.2 -5.7 -5 -4 -4.3 -5.2 -5 -8.5 -5 -2.5 0 -4.1 0.6 -4.7 1.7 -1.3 2.3 -13.1 1.2 -18 -1.7 -4.7 -2.8 -11.1 -2 -20.9 2.6 -4 1.9 -8 3.4 -9 3.4 -4.6 0.1 -14.7 3.6 -15.7 5.5 -0.6 1.1 -1.1 2.1 -1.1 2.2 0 0.1 -3 -0.7 -6.7 -1.7 -13 -3.6 -25.8 -5.2 -41 -5.1 -13.2 0.1 -14.8 -0.1 -14.8 -1.6 0 -0.9 1.2 -2.9 2.7 -4.5 l2.7 -2.8 -3 -3.7 c-1.7 -2 -4.3 -4.6 -5.8 -5.7 l-2.8 -2.1 -10.6 5.7 c-10.5 5.5 -10.7 5.7 -11.2 9.5 -0.4 2.5 -1.6 5 -3.3 6.7 -1.5 1.5 -2.7 3.3 -2.7 4 0 1.4 -3 2.6 -6.7 2.6 -1.7 0 -2.2 0.7 -2.5 3.3 -0.2 2.2 -1 3.5 -2.6 4.2 -1.2 0.5 -2.3 1.7 -2.4 2.5 -0.2 2.8 -0.5 3.5 -2.3 7.3 -3 5.9 -3.8 4.6 -3.3 -5 0.8 -12.7 3.5 -18.8 12.3 -27.5 10.1 -10 23 -18.8 39 -26.8 7.7 -3.9 14.3 -7 14.7 -7 0.3 0 1.1 3.1 1.8 6.8 l1.1 6.8 5.9 -1 c3.3 -0.5 6.3 -0.7 6.7 -0.3 0.3 0.4 -0.4 1.8 -1.6 3.1 -5.1 5.4 -2.2 7.1 19.8 11.2 18.6 3.5 36.6 3.8 43.3 0.7 7.2 -3.3 9.2 -9.7 4.3 -14.3 -3.1 -2.9 -3.1 -4.3 0 -10.8 1.4 -2.9 2.5 -5.6 2.5 -6 0 -1.8 5 -6.2 7 -6.2 7.8 0 38.3 9.1 49.9 14.9 4.8 2.4 7.2 2.9 17.1 3.4 12.1 0.7 26.8 3.3 36 6.5 5 1.7 19.4 8.7 22.9 11.1 2.2 1.4 -0.4 4.1 -4.1 4.1 -1.6 0 -3.1 0.6 -3.4 1.5 -0.4 1 -2.1 1.5 -5.5 1.5 -6.8 0 -8.9 2 -8.9 8.5 0 2.7 -0.7 5.8 -1.5 6.9 -1 1.3 -1.1 2.5 -0.4 4.3 2.3 6.1 1.4 8.4 -7.7 18.1 -8.2 8.8 -8.7 9.2 -12.8 9.2 -4.1 0 -4.6 -0.3 -14.4 -11z"/>
 </g>
 <g fill="#343638">
  <path d="M391.3 128.4 c-2.7 -1.4 -3.3 -2.2 -3.3 -5 0 -3 -0.8 -3.9 -7.3 -8.7 -4 -2.9 -8.5 -5.7 -10 -6.1 -1.7 -0.4 -6.5 -4.5 -12.2 -10.4 l-9.3 -9.6 -4.9 2.3 c-2.8 1.3 -5.7 3.5 -6.7 5.2 -0.9 1.5 -3 3.6 -4.6 4.6 -1.7 0.9 -3 2.1 -3 2.4 0 1.6 -3.3 3.9 -5.6 3.9 -2 0 -2.4 0.5 -2.4 3 0 3.7 -2.3 8.5 -4.5 9.4 -0.9 0.3 -3.8 0.6 -6.5 0.6 -7.1 0 -8.9 -2 -9.2 -9.9 l-0.3 -6.4 -6 -3.8 c-9.5 -6 -14.2 -8.1 -16.4 -7.4 -1.2 0.3 -2.1 1.1 -2.1 1.6 0 2.7 -2.3 0.1 -5.4 -6.3 -7.1 -14.7 -22.1 -28.4 -35.8 -32.8 -3 -0.9 -3.7 -1.6 -3.5 -3.3 0.1 -1.2 0.9 -2.7 1.7 -3.3 1.5 -1.2 13 -4.4 15.6 -4.4 0.8 0 4.7 -1.5 8.7 -3.4 4.2 -1.9 10.4 -3.8 14.8 -4.5 7.4 -1.2 7.8 -1.1 11.2 1.2 4.7 3.2 11.5 4.3 13.1 2.2 0.8 -1 3 -1.6 7.5 -1.7 l6.4 -0.2 4.9 5.2 c2.7 2.9 5.4 5.2 5.9 5.2 4.3 0 13.9 8.3 13.9 12 0 2.1 19.5 24 21.4 24 1 0 8.6 -7.4 15.9 -15.6 l2.7 -3 -1.6 -4.6 c-1.7 -4.4 -1.7 -4.6 0.4 -7.6 2.6 -3.5 2.8 -5.8 0.7 -6.6 -2.2 -0.8 -1.8 -2.4 1.3 -5.5 1.5 -1.6 2.6 -3.3 2.4 -4 -0.3 -0.8 1.4 -0.9 5.6 -0.5 4.9 0.5 6 0.4 6.5 -1 0.4 -0.9 1.8 -1.6 3.5 -1.6 1.5 0 3.3 -0.5 3.9 -1.1 1.3 -1.3 4.4 0.2 11.1 5.1 6.4 4.6 5.7 6 -7.8 14.6 -6.3 4 -11.9 7.5 -12.5 7.7 -0.5 0.2 1.8 4.1 5.1 8.8 10.1 13.9 17.8 28.4 23.2 43.1 l2.1 5.6 -7.7 5.8 c-6.5 4.9 -8.4 5.8 -12.7 6.1 -3.3 0.2 -6.1 -0.2 -8.2 -1.3z"/>
  <path d="M120.8 68.8 c-0.4 -4.1 1 -7.2 3.7 -8.4 1.3 -0.6 2.1 -2 2.3 -4.1 0.3 -2.6 0.8 -3.3 2.5 -3.3 3.7 0 6.7 -1.2 6.7 -2.5 0 -0.7 1.4 -2.8 3.1 -4.6 2.5 -2.7 3 -3.9 2.6 -6.4 -0.5 -3.1 -0.4 -3.2 11.4 -9.3 6.6 -3.4 13.1 -6.2 14.5 -6.2 3 0 15.4 11.8 15.4 14.8 0 1 -1.7 3.4 -3.7 5.4 -3.4 3.2 -4.7 3.8 -11.8 4.8 -17.9 2.5 -30.9 8.1 -39.7 17.1 -3.2 3.3 -6 5.9 -6.2 5.9 -0.3 0 -0.6 -1.5 -0.8 -3.2z"/>
 </g>
 <g fill="#2a2c2e">
  <path d="M364.1 212.3 c0 -17.3 -1.9 -28.8 -8 -46.7 -5.4 -15.8 -14.8 -34 -17.9 -34.4 -4.3 -0.6 -5.2 1.3 -5.2 10.9 0 7.6 -0.3 9.2 -2 10.9 -3.5 3.5 -4.3 3.1 -19.1 -9.6 -14.8 -12.7 -27.9 -28.9 -34.4 -42.6 -4.2 -8.7 -4.3 -10.1 -1 -11.6 5 -2.3 5.5 -2.1 22 7.7 3.1 1.9 5.9 4.1 6.3 5 0.3 0.9 1 1.9 1.6 2.3 0.7 0.4 0.6 1.5 -0.3 3.1 -2.8 5.3 1.4 10.8 7.2 9.3 3.5 -0.8 6.4 -6.2 4.8 -8.8 -1.8 -2.9 -1.3 -3.8 2.3 -3.8 3.3 0 7.1 -2.4 6.2 -3.9 -0.3 -0.4 0.9 -1.3 2.5 -2 1.7 -0.7 4 -2.8 5.1 -4.5 1.2 -1.8 4.8 -4.7 8.4 -6.6 l6.2 -3.3 2.8 2.1 c1.6 1.1 6.6 5.9 11 10.6 5 5.1 9.3 8.8 11 9.2 1.6 0.4 6.1 3.2 10.1 6.1 6.5 4.8 7.3 5.7 7.3 8.7 0 2.9 0.5 3.6 3.5 5 4.6 2.2 6 1.7 15.7 -5.6 4.4 -3.3 8.1 -5.8 8.3 -5.6 1.3 1.4 5.7 18.5 7.4 28.8 2.7 16.6 3.5 33.2 2.2 45.9 -0.6 5.8 -1.2 10.6 -1.4 10.7 -0.1 0.2 -3.7 0 -7.9 -0.3 l-7.7 -0.6 -7.5 -6.8 c-4.1 -3.8 -7.8 -6.9 -8.2 -6.9 -0.4 0 -2.9 -2 -5.5 -4.5 l-4.9 -4.5 -6.5 5.2 -6.5 5.3 4.3 3.8 c2.3 2.1 4.8 4.3 5.5 4.8 0.6 0.5 1.2 2.3 1.2 3.9 0 2.9 0.1 3 4.8 3 2.6 0 5.3 0.5 6 1.2 2.1 2.1 1.4 7.1 -1.5 10.5 -1.6 1.7 -4 4.6 -5.5 6.5 -3.1 4.1 -10.1 6.8 -17.7 6.8 l-4.9 0 -0.1 -14.7z"/>
 </g>
 <g fill="#242527">
  <path d="M197.1 271 c-1.2 -2.2 -2.1 -5.8 -2.1 -7.9 0 -2.3 -0.7 -4.7 -1.8 -5.9 -1.9 -2.1 -1.9 -2.1 -5.6 -0.3 -2 1.1 -5.8 2.2 -8.4 2.5 -2.6 0.3 -6.5 0.8 -8.8 1.1 -2.2 0.4 -5.8 0.2 -8 -0.4 -3.6 -1 -4.2 -1.6 -6.8 -7.7 -3.6 -8.2 -9.6 -16.5 -17.8 -24.5 l-6.3 -6.1 8.5 0.7 c10.9 0.9 24.9 3.7 32.2 6.5 16.2 6.1 27.9 19 30.8 34 2.4 12.3 2.4 12 -0.9 12 -2.4 0 -3.3 -0.7 -5 -4z"/>
  <path d="M400.8 244.3 c-6.1 -6.8 -6.8 -8.1 -6.8 -11.8 0 -2.3 0.7 -6.5 1.6 -9.4 1.7 -5.9 1.2 -7.1 -3.9 -9.7 -2.7 -1.5 -2.8 -1.6 -1.3 -3.9 2.2 -3.3 0.2 -4.7 -5.8 -3.9 l-4.6 0.7 0 -3.6 c0 -2.1 -0.7 -4.2 -1.6 -4.9 -0.9 -0.7 -4.2 -3.7 -7.4 -6.5 -3.1 -2.9 -6.4 -5.3 -7.3 -5.3 -1 0 -1.7 -0.7 -1.7 -1.5 0 -1.1 1.1 -1.5 4 -1.5 3.3 0 5 -0.9 11.1 -6 3.9 -3.3 7.5 -6 7.9 -6 0.3 0 3.4 2.5 6.7 5.5 3.4 3 6.4 5.5 6.8 5.5 0.4 0 4.1 3.2 8.3 7 7 6.5 8 7.1 11.7 6.9 5 -0.3 8.5 0.8 8.5 2.7 0 4 -5.6 26.9 -8.5 34.8 -6.6 18.2 -6.8 18.6 -9 18.5 -1.2 0 -4.7 -3.1 -8.7 -7.6z"/>
 </g>
 <g fill="#1e1f21">
  <path d="M230 352.3 c-13.9 -2.2 -26.3 -5 -35.1 -7.9 l-10.6 -3.6 -8.4 3 c-15 5.3 -26.4 7.5 -38.4 7.6 -14.6 0.1 -22 -2.4 -32.9 -10.8 -4.7 -3.6 -13 -14.6 -11.9 -15.7 0.4 -0.4 6.5 -2.1 13.4 -3.8 6.9 -1.6 15 -4.1 18.1 -5.4 24.8 -11 39.8 -34.8 34.4 -54.7 -0.8 -3 -1.3 -5.6 -1.1 -5.8 0.1 -0.2 2.8 0.4 5.8 1.3 5.2 1.5 5.8 1.5 8.8 0 1.7 -0.9 4.5 -1.5 6.1 -1.3 1.7 0.3 4.5 -0.3 6.6 -1.4 4.9 -2.4 9 -2.3 11.3 0.4 2 2.3 2.2 2.9 1.9 6.9 -0.2 3.1 3.5 10.4 5.2 10.4 0.6 0 1.5 1.1 1.8 2.5 3.8 14 20.6 29.8 40.3 37.8 5.9 2.4 6.8 2.5 19.8 1.9 16.4 -0.8 21.7 -1.8 33.4 -6.4 12.2 -4.8 13.5 -5.5 23.9 -13.3 20.8 -15.4 33.3 -34.1 39.2 -58.6 1.4 -6 3.1 -11.2 3.7 -11.6 0.7 -0.4 2.1 -0.5 3.3 -0.2 3.3 0.9 12.2 -2.5 14.7 -5.6 1.2 -1.5 3.5 -4.4 5 -6.3 l2.9 -3.5 3.2 1.9 c1.8 1 4.3 3 5.6 4.3 2.2 2.4 2.2 2.7 0.7 5.8 -0.8 1.8 -2.1 5.4 -2.7 8 -1.4 5.4 -1.2 5.7 8.8 16.1 l5.5 5.9 -3.1 6.4 c-9.7 19.6 -29.9 44.8 -47.7 59.4 -24.3 19.9 -50.7 31.2 -83.4 35.5 -9.6 1.3 -41.7 1.9 -48.1 0.8z"/>
 </g>
</svg>